<?xml version="1.0" standalone="no"?>
<!DOCTYPE svg PUBLIC "-//W3C//DTD SVG 20010904//EN"
 "http://www.w3.org/TR/2001/REC-SVG-20010904/DTD/svg10.dtd">
<svg version="1.0" xmlns="http://www.w3.org/2000/svg"
 width="600.000000pt" height="600.000000pt" viewBox="0 0 600.000000 600.000000"
 preserveAspectRatio="xMidYMid meet">
<metadata>
Created by potrace 1.11, written by Peter Selinger 2001-2013
</metadata>
<g transform="translate(0.000000,600.000000) scale(0.100000,-0.100000)"
fill="#000000" stroke="none">
<path d="M1815 3709 c-480 -51 -901 -393 -1085 -882 -76 -202 -106 -390 -97
-611 16 -394 154 -714 426 -987 190 -191 401 -312 657 -376 99 -25 126 -27
299 -28 178 0 196 2 289 28 321 89 563 298 712 612 58 122 70 203 33 229 -13
9 -40 16 -61 16 -43 0 -57 -16 -83 -95 -30 -91 -106 -232 -169 -312 -242 -306
-686 -414 -1017 -248 -186 93 -324 232 -417 420 -96 195 -138 407 -144 725
l-3 145 943 5 c920 5 944 5 958 24 21 30 18 229 -6 371 -87 509 -385 846 -835
944 -62 14 -227 31 -280 29 -22 0 -76 -4 -120 -9z m224 -140 c303 -49 497
-289 580 -721 15 -78 41 -309 41 -364 0 -2 -338 -4 -751 -4 l-752 0 7 83 c22
265 83 474 187 651 51 85 182 218 262 265 98 57 226 97 327 100 19 0 64 -4 99
-10z"/>
</g>
</svg>
